<svg xmlns="http://www.w3.org/2000/svg" width="32" height="32" viewBox="0 0 32 32">
  <rect width="32" height="32" rx="8" fill="#D97757"/>
  <g fill="none" stroke="#FFFFFF" stroke-width="2.4" stroke-linecap="round" stroke-linejoin="round">
    <path d="M11 5H7a2 2 0 0 0-2 2v4"/>
    <path d="M21 5h4a2 2 0 0 1 2 2v4"/>
    <path d="M5 21v4a2 2 0 0 0 2 2h4"/>
    <path d="M27 21v4a2 2 0 0 1-2 2h-4"/>
    <path d="M9 19c4 5 12 5 15-1"/>
    <path d="m22 16 3 2-2 3"/>
    <circle cx="16" cy="16" r="2.2" fill="#FFFFFF" stroke="none"/>
  </g>
</svg>
